<svg width="49" height="48" viewBox="0 0 49 48" fill="none" xmlns="http://www.w3.org/2000/svg">
<path d="M8.66663 40C7.56206 40 6.66663 39.1046 6.66663 38C6.66663 36.8954 7.56206 36 8.66663 36H12.1666L11.3666 35.3C9.63329 33.7667 8.41663 32.0167 7.71663 30.05C7.01663 28.0833 6.66663 26.1 6.66663 24.1C6.66663 20.4 7.77496 17.1083 9.99163 14.225C11.6491 12.069 13.684 10.4582 16.0963 9.39248C17.3563 8.83583 18.6666 9.84625 18.6666 11.2237C18.6666 12.1096 18.1025 12.8843 17.3096 13.2795C15.5269 14.168 14.0459 15.4499 12.8666 17.125C11.4 19.2083 10.6666 21.5333 10.6666 24.1C10.6666 25.6 10.95 27.0583 11.5166 28.475C12.0833 29.8917 12.9666 31.2 14.1666 32.4L14.6666 32.9V30C14.6666 28.8954 15.5621 28 16.6666 28C17.7712 28 18.6666 28.8954 18.6666 30V38.2656C18.6666 39.2235 17.8901 40 16.9323 40H8.66663ZM42.0779 19.7557C42.3986 20.9301 41.4452 22 40.2278 22C39.2172 22 38.3812 21.2479 38.0723 20.2857C37.8932 19.728 37.6663 19.1828 37.3916 18.65C36.8416 17.5833 36.1 16.5667 35.1666 15.6L34.6666 15.1V18C34.6666 19.1046 33.7712 20 32.6666 20C31.5621 20 30.6666 19.1046 30.6666 18V9.73438C30.6666 8.77651 31.4431 8 32.401 8H40.6666C41.7712 8 42.6666 8.89543 42.6666 10C42.6666 11.1046 41.7712 12 40.6666 12H37.1666L37.9666 12.7C39.3333 14.1 40.3833 15.5833 41.1166 17.15C41.5162 18.0037 41.8367 18.8723 42.0779 19.7557ZM35.0765 46C34.8382 46 34.633 45.8318 34.5862 45.5981L34.0666 43C33.6666 42.8333 33.2916 42.6583 32.9416 42.475C32.5916 42.2917 32.2333 42.0667 31.8666 41.8L29.345 42.5826C29.1233 42.6514 28.8835 42.5586 28.7658 42.3586L27.1773 39.6582C27.0552 39.4506 27.0984 39.1854 27.2802 39.0273L29.2666 37.3C29.2 36.8333 29.1666 36.4 29.1666 36C29.1666 35.6 29.2 35.1667 29.2666 34.7L27.2802 32.9727C27.0984 32.8146 27.0552 32.5494 27.1773 32.3418L28.7658 29.6414C28.8835 29.4414 29.1233 29.3486 29.345 29.4174L31.8666 30.2C32.2333 29.9333 32.5916 29.7083 32.9416 29.525C33.2916 29.3417 33.6666 29.1667 34.0666 29L34.5862 26.4019C34.633 26.1682 34.8382 26 35.0765 26H38.2567C38.4951 26 38.7003 26.1682 38.747 26.4019L39.2666 29C39.6666 29.1667 40.0416 29.35 40.3916 29.55C40.7416 29.75 41.1 30 41.4666 30.3L43.975 29.435C44.2022 29.3567 44.4529 29.451 44.5721 29.6597L46.1631 32.4438C46.2814 32.6509 46.237 32.9127 46.0571 33.0692L44.0666 34.8C44.1333 35.2 44.1666 35.6167 44.1666 36.05C44.1666 36.4833 44.1333 36.9 44.0666 37.3L46.0531 39.0273C46.2348 39.1854 46.2781 39.4506 46.1559 39.6582L44.5675 42.3586C44.4498 42.5586 44.21 42.6514 43.9883 42.5826L41.4666 41.8C41.1 42.0667 40.7416 42.2917 40.3916 42.475C40.0416 42.6583 39.6666 42.8333 39.2666 43L38.747 45.5981C38.7003 45.8318 38.4951 46 38.2567 46H35.0765ZM36.6666 40C37.7666 40 38.7083 39.6083 39.4916 38.825C40.275 38.0417 40.6666 37.1 40.6666 36C40.6666 34.9 40.275 33.9583 39.4916 33.175C38.7083 32.3917 37.7666 32 36.6666 32C35.5666 32 34.625 32.3917 33.8416 33.175C33.0583 33.9583 32.6666 34.9 32.6666 36C32.6666 37.1 33.0583 38.0417 33.8416 38.825C34.625 39.6083 35.5666 40 36.6666 40Z" fill="#0000FF"/>
</svg>
