<svg width="48" height="48" viewBox="0 0 48 48" fill="none" xmlns="http://www.w3.org/2000/svg">
<path d="M8 22C7.43333 22 6.95833 21.8083 6.575 21.425C6.19167 21.0417 6 20.5667 6 20V8C6 7.43333 6.19167 6.95833 6.575 6.575C6.95833 6.19167 7.43333 6 8 6H20C20.5667 6 21.0417 6.19167 21.425 6.575C21.8083 6.95833 22 7.43333 22 8V20C22 20.5667 21.8083 21.0417 21.425 21.425C21.0417 21.8083 20.5667 22 20 22H8ZM28 22C27.4333 22 26.9583 21.8083 26.575 21.425C26.1917 21.0417 26 20.5667 26 20V8C26 7.43333 26.1917 6.95833 26.575 6.575C26.9583 6.19167 27.4333 6 28 6H40C40.5667 6 41.0417 6.19167 41.425 6.575C41.8083 6.95833 42 7.43333 42 8V20C42 20.5667 41.8083 21.0417 41.425 21.425C41.0417 21.8083 40.5667 22 40 22H28ZM8 42C7.43333 42 6.95833 41.8083 6.575 41.425C6.19167 41.0417 6 40.5667 6 40V28C6 27.4333 6.19167 26.9583 6.575 26.575C6.95833 26.1917 7.43333 26 8 26H20C20.5667 26 21.0417 26.1917 21.425 26.575C21.8083 26.9583 22 27.4333 22 28V40C22 40.5667 21.8083 41.0417 21.425 41.425C21.0417 41.8083 20.5667 42 20 42H8ZM34 42C33.4333 42 32.9583 41.8083 32.575 41.425C32.1917 41.0417 32 40.5667 32 40V36H27.95C27.3833 36 26.9167 35.8083 26.55 35.425C26.1833 35.0417 26 34.5667 26 34C26 33.4333 26.1917 32.9583 26.575 32.575C26.9583 32.1917 27.4333 32 28 32H32V27.95C32 27.3833 32.1917 26.9167 32.575 26.55C32.9583 26.1833 33.4333 26 34 26C34.5667 26 35.0417 26.1917 35.425 26.575C35.8083 26.9583 36 27.4333 36 28V32H40.05C40.6167 32 41.0833 32.1917 41.45 32.575C41.8167 32.9583 42 33.4333 42 34C42 34.5667 41.8083 35.0417 41.425 35.425C41.0417 35.8083 40.5667 36 40 36H36V40.05C36 40.6167 35.8083 41.0833 35.425 41.45C35.0417 41.8167 34.5667 42 34 42ZM30 10V18H38V10H30ZM10 10V18H18V10H10ZM10 30V38H18V30H10Z" fill="#0000FF"/>
</svg>
