<svg width="49" height="48" viewBox="0 0 49 48" fill="none" xmlns="http://www.w3.org/2000/svg">
<path d="M10.3333 42C9.23334 42 8.29168 41.6083 7.50834 40.825C6.72501 40.0417 6.33334 39.1 6.33334 38V10C6.33334 8.9 6.72501 7.95833 7.50834 7.175C8.29168 6.39167 9.23334 6 10.3333 6H38.3333C39.4333 6 40.375 6.39167 41.1583 7.175C41.9417 7.95833 42.3333 8.9 42.3333 10V38C42.3333 39.1 41.9417 40.0417 41.1583 40.825C40.375 41.6083 39.4333 42 38.3333 42H10.3333ZM10.3333 38H22.3333V10H10.3333V38ZM26.3333 38H38.3333V24H26.3333V38ZM26.3333 20H38.3333V10H26.3333V20Z" fill="#0000FF"/>
</svg>
